<svg width="36" height="36" viewBox="0 0 36 36" fill="none" xmlns="http://www.w3.org/2000/svg">
<path d="M23.317 23.6658C24.0912 23.2179 24.2879 22.0021 24.9165 21.3735C25.5451 20.7449 26.7608 20.5493 27.2088 19.7745C27.6508 19.0108 27.218 17.8615 27.451 16.9892C27.6757 16.1446 28.584 15.3692 28.584 14.4554C28.584 13.5415 27.6276 12.765 27.4021 11.9226C27.1691 11.0503 27.6022 9.9011 27.1604 9.13735C26.7125 8.36307 25.4972 8.16701 24.8686 7.53839C24.24 6.90978 24.0439 5.69409 23.2696 5.24603C22.5075 4.805 21.3528 5.23577 20.4843 5.00372C19.6893 4.77803 18.9139 3.82153 18.0001 3.82153C17.0862 3.82153 16.3108 4.77803 15.469 5.00344C14.5939 5.23606 13.4419 4.80406 12.682 5.24492C11.9077 5.69298 11.7117 6.90867 11.0831 7.53673C10.455 8.16535 9.23876 8.36141 8.7907 9.13569C8.34873 9.89723 8.78184 11.0492 8.54867 11.9188C8.3227 12.7661 7.36625 13.5415 7.36625 14.4554C7.36625 15.3692 8.32274 16.1457 8.54816 16.9881C8.78116 17.8604 8.34794 19.0097 8.78969 19.7734C9.23821 20.5477 10.4533 20.7415 11.0814 21.3729C11.71 22.0015 11.9061 23.2172 12.6809 23.6658C13.4419 24.1062 14.5978 23.6753 15.4657 23.9078C16.3108 24.1311 17.0862 25.0892 18.0001 25.0892C18.9139 25.0892 19.6904 24.1327 20.5333 23.9073C21.4062 23.6769 22.5527 24.1089 23.317 23.6658ZM17.9502 23.2892C17.5055 23.0676 16.7982 22.4396 15.8744 22.1932C14.9489 21.9452 14.0445 22.1211 13.5322 22.0981C13.2579 21.664 12.9567 20.7882 12.2855 20.1175C11.6148 19.4463 10.743 19.1483 10.3044 18.8703C10.3343 18.36 10.5065 17.4517 10.2606 16.5323C10.0133 15.6068 9.38719 14.9045 9.16454 14.4565C9.38586 14.012 10.0136 13.3061 10.2612 12.3796C10.5067 11.4602 10.3348 10.5585 10.3551 10.0385C10.7901 9.76314 11.6639 9.46412 12.3368 8.79119C13.0044 8.12381 13.309 7.23987 13.5859 6.80953C14.0899 6.78904 15.0037 6.96129 15.9231 6.71538C16.8503 6.46753 17.5476 5.84363 17.9989 5.61932C18.4435 5.84041 19.1493 6.46836 20.0753 6.71593C21.0025 6.96356 21.9036 6.78766 22.417 6.8107C22.685 7.23439 22.9957 8.12387 23.6637 8.79125C24.33 9.45808 25.2145 9.76657 25.6448 10.0385C25.6645 10.5521 25.4924 11.4586 25.7386 12.3802C25.9861 13.3057 26.612 14.0074 26.8346 14.4554C26.6144 14.8985 25.9861 15.6063 25.738 16.5324C25.4941 17.4457 25.6638 18.3102 25.6441 18.8735C25.209 19.1487 24.3348 19.4484 23.6625 20.1207C22.9962 20.787 22.6882 21.6709 22.4163 22.1007C21.907 22.1237 21.0018 21.947 20.0746 22.195C19.1521 22.4418 18.4487 23.0677 17.9502 23.2892ZM22.8241 14.4554C22.8241 11.7581 20.6425 9.58153 18.0001 9.58153C15.3577 9.58153 13.1262 11.7581 13.1262 14.4554C13.1262 17.146 15.3078 19.3292 17.9502 19.3292C20.5926 19.3292 22.8241 17.1471 22.8241 14.4554ZM18.0001 17.5569C16.2887 17.5569 14.8985 16.1668 14.8985 14.4554C14.8985 12.7451 16.2898 11.3538 17.9502 11.3538C19.6106 11.3538 21.0517 12.744 21.0517 14.4554C21.0517 16.1668 19.7114 17.5569 18.0001 17.5569ZM27.1607 24.3194C26.9807 23.8642 26.4639 23.6437 26.0109 23.8218C25.5566 24.0018 25.3335 24.5169 25.5133 24.9721L26.8547 28.3645L24.2251 28.001L22.8604 30.3427L21.4802 26.9531C21.2959 26.4988 20.7757 26.2808 20.326 26.4668C19.8725 26.6511 19.6547 27.168 19.8397 27.621L21.2187 31.01C21.5004 31.7022 22.1317 32.1452 22.9514 32.1785C23.662 32.1785 24.3017 31.7838 24.6196 31.1489L25.1967 30.0057L26.3881 30.2445C27.0593 30.3856 27.7555 30.139 28.1975 29.6076C28.6379 29.0789 28.753 28.3526 28.4995 27.7124L27.1607 24.3194ZM15.6739 26.4683C15.2231 26.2814 14.703 26.5012 14.5197 26.9546L13.1395 30.3442L11.7748 28.0025L9.14738 28.3651L10.486 24.9739C10.666 24.5187 10.4427 24.0036 9.98845 23.8236C9.53396 23.6437 9.01999 23.8652 8.83999 24.3194L7.49858 27.7117C7.24503 28.3519 7.36011 29.078 7.80059 29.607C8.24455 30.14 8.93708 30.3823 9.60668 30.245L10.8019 30.0053L11.3784 31.1473C11.6978 31.7815 12.3349 32.1764 13.1186 32.1764C13.8619 32.1469 14.5021 31.6995 14.7818 31.0105L16.162 27.621C16.3496 27.1661 16.1281 26.6511 15.6739 26.4683Z" fill="white"/>
</svg>
