<svg width="36" height="36" viewBox="0 0 36 36" fill="none" xmlns="http://www.w3.org/2000/svg">
<path d="M18.8862 25.5323C18.8862 26.0197 18.4874 26.4185 18 26.4185C17.5126 26.4185 17.1139 26.0197 17.1139 25.5323V21.1015C17.1139 20.6141 17.5126 20.2154 18 20.2154C18.4874 20.2154 18.8862 20.6141 18.8862 21.1015V25.5323ZM18 3.82153C21.9157 3.82153 25.0893 6.99563 25.0893 10.9108V14.4554H25.9754C28.4234 14.4554 30.4062 16.4381 30.4062 18.8861V27.7477C30.4062 30.1957 28.4234 32.1785 25.9754 32.1785H10.0246C7.57775 32.1785 5.59387 30.1957 5.59387 27.7477V18.8861C5.59387 16.4381 7.57775 14.4554 10.0246 14.4554H10.9108V10.9108C10.9108 6.99563 14.0843 3.82153 18 3.82153ZM18 5.59384C15.0148 5.59384 12.6831 7.97427 12.6831 10.9108V14.4554H23.3169V10.9108C23.3169 7.97427 20.9354 5.59384 18 5.59384ZM10.0246 16.2277C8.5564 16.2277 7.36618 17.4185 7.36618 18.8861V27.7477C7.36618 29.2154 8.5564 30.4061 10.0246 30.4061H25.9754C27.4431 30.4061 28.6339 29.2154 28.6339 27.7477V18.8861C28.6339 17.4185 27.4431 16.2277 25.9754 16.2277H10.0246Z" fill="white"/>
</svg>
