<svg width="36" height="36" viewBox="0 0 36 36" fill="none" xmlns="http://www.w3.org/2000/svg">
<path d="M19.7723 30.4061C19.8443 30.4061 19.9163 30.4006 19.9883 30.3951C20.4258 30.8714 20.9077 31.3311 21.4449 31.7575C20.9464 32.0289 20.376 32.1785 19.7723 32.1785H5.59381C3.63596 32.1785 2.04919 30.5889 2.04919 28.6338V7.36615C2.04919 5.4083 3.63596 3.82153 5.59381 3.82153H14.2393C14.9427 3.82153 15.624 4.10161 16.1224 4.60024L22.536 11.016C23.0344 11.5145 23.3169 12.1957 23.3169 12.8991V15.2861L21.5446 15.9951V14.4554H15.3415C13.8738 14.4554 12.683 13.2646 12.683 11.7969V5.59384H5.59381C4.61516 5.59384 3.8215 6.3875 3.8215 7.36615V28.6338C3.8215 29.6141 4.61516 30.4061 5.59381 30.4061H19.7723ZM21.2843 12.2732L14.8652 5.85359C14.7544 5.73895 14.6104 5.65919 14.4055 5.62043V11.7969C14.4055 12.2843 14.8541 12.6831 15.2917 12.6831H21.5169C21.4781 12.528 21.4006 12.384 21.2843 12.2732ZM33.1144 18.9803C33.6184 19.1852 33.9507 19.6726 33.9507 20.2154C33.9507 23.7212 32.5163 29.5643 26.4849 32.0788C26.1581 32.2117 25.7926 32.2117 25.4658 32.0788C19.4344 29.5643 17.9501 23.7212 17.9501 20.2154C17.9501 19.6726 18.2824 19.1852 18.8363 18.9803L25.4824 16.3218C25.7981 16.1945 26.1526 16.1945 26.4683 16.3218L33.1144 18.9803ZM25.0892 29.9298V18.3877L19.7778 20.5145C19.8498 23.4443 21.024 27.6868 25.0892 29.9298ZM26.8615 18.3877V29.9298C30.9267 27.6868 32.1009 23.4443 32.1729 20.5145L26.8615 18.3877Z" fill="white"/>
</svg>
