<svg width="36" height="36" viewBox="0 0 36 36" fill="none" xmlns="http://www.w3.org/2000/svg">
<path d="M27.7481 10.6481L21.7575 4.65748C21.0768 3.97921 20.1656 3.59998 19.2093 3.59998H10.8C8.81151 3.59998 7.19995 5.21154 7.19995 7.19998L7.20032 28.8C7.20032 30.7884 8.81188 32.4 10.8003 32.4H25.2C27.1884 32.4 28.8 30.7884 28.8 28.8V13.1906C28.8 12.2344 28.4231 11.3231 27.7481 10.6481ZM19.8 5.51698C20.0518 5.60506 20.2874 5.73331 20.4817 5.92754L26.4723 11.9182C26.6681 12.1106 26.7975 12.3468 26.8818 12.6H20.7C20.205 12.6 19.8 12.195 19.8 11.7V5.51698ZM22.5 30.6H13.5V29.7C13.5 28.2093 14.7093 27 16.2 27H19.8C21.2911 27 22.5 28.2088 22.5 29.7V30.6ZM27 28.8C27 29.7922 26.1922 30.6 25.2 30.6H24.3V29.7C24.3 27.2148 22.2851 25.2 19.8 25.2H16.2C13.7148 25.2 11.7 27.2148 11.7 29.7V30.6H10.8C9.8077 30.6 8.99995 29.7922 8.99995 28.8V7.19998C8.99995 6.20773 9.8077 5.39998 10.8 5.39998H18V11.7C18 13.1906 19.2093 14.4 20.7 14.4H27V28.8ZM18 16.2C16.0143 16.2 14.4 17.8143 14.4 19.8C14.4 21.7856 16.0115 23.4 18 23.4C19.9884 23.4 21.6 21.7884 21.6 19.8C21.6 17.8115 19.9856 16.2 18 16.2ZM18 21.6C17.0077 21.6 16.2 20.7922 16.2 19.8C16.2 18.8077 17.0077 18 18 18C18.9922 18 19.8 18.8077 19.8 19.8C19.8 20.7922 18.99 21.6 18 21.6Z" fill="white"/>
</svg>
